<?xml version="1.0" encoding="UTF-8" standalone="no"?>
<!DOCTYPE svg PUBLIC "-//W3C//DTD SVG 1.1//EN" "http://www.w3.org/Graphics/SVG/1.1/DTD/svg11.dtd">
<svg width="100%" height="100%" viewBox="0 0 1149 300" version="1.1" xmlns="http://www.w3.org/2000/svg" xmlns:xlink="http://www.w3.org/1999/xlink" xml:space="preserve" xmlns:serif="http://www.serif.com/" style="fill-rule:evenodd;clip-rule:evenodd;stroke-linejoin:round;stroke-miterlimit:2;">
    <g>
        <path id="Name" d="M430.4,129.975l-19.2,40.5c-2.8,5.4 -6.275,8.1 -10.425,8.1c-4.15,-0 -7.625,-2.85 -10.425,-8.55l-19.5,-40.05l-0,63.75l-20.85,-0l-0,-106.8l20.55,-0l30.15,61.65l30,-61.65l20.55,-0l0,106.8l-20.85,-0l0,-63.75Z" style="fill-rule:nonzero;"/>
        <path d="M530.6,193.725l-13.05,-0l-6,-10.35l-20.85,11.25c-11.6,-0 -19.4,-4.2 -23.4,-12.6c-2,-4.1 -3.375,-8.525 -4.125,-13.275c-0.75,-4.75 -1.125,-9.7 -1.125,-14.85c0,-5.15 0.05,-8.95 0.15,-11.4c0.1,-2.45 0.35,-5.3 0.75,-8.55c0.4,-3.25 0.975,-5.975 1.725,-8.175c0.75,-2.2 1.825,-4.475 3.225,-6.825c1.4,-2.35 3.1,-4.225 5.1,-5.625c4.5,-3.1 10.35,-4.65 17.55,-4.65l20.55,-0l19.5,-1.2l0,86.25Zm-19.5,-27.3l0,-40.2l-14.85,-0c-5.5,-0 -9.325,2.1 -11.475,6.3c-2.15,4.2 -3.225,10.475 -3.225,18.825c0,8.35 1.025,14.225 3.075,17.625c2.05,3.4 5.925,5.1 11.625,5.1l14.85,-7.65Z" style="fill-rule:nonzero;"/>
        <path d="M597.2,108.375l-5.4,19.2c-1.5,-0.6 -3.2,-0.9 -5.1,-0.9c-5,-0 -11.15,2.15 -18.45,6.45l0,60.6l-19.5,-0l0,-85.65l14.55,-0l4.5,7.5l20.7,-8.55c1,-0.1 2.35,-0.15 4.05,-0.15c1.7,-0 3.25,0.5 4.65,1.5Z" style="fill-rule:nonzero;"/>
        <path d="M683.9,193.725l-23.4,-0l-22.5,-30.3l-8.55,12.15l0,18.15l-19.5,-0l0,-112.8l19.5,-0l0,71.25l27.3,-40.65l22.05,-0l-28.05,38.4l33.15,43.8Z" style="fill-rule:nonzero;"/>
        <path d="M758.15,193.725l-14.55,-0l-4.5,-10.2l-24,11.1c-6.7,-0 -12.525,-2.475 -17.475,-7.425c-4.95,-4.95 -7.425,-12.175 -7.425,-21.675l0,-57.45l19.5,-0l0,53.25c0,9.5 3.8,14.25 11.4,14.25l17.55,-9.45l0,-58.05l19.5,-0l0,85.65Z" style="fill-rule:nonzero;"/>
        <path d="M848.45,148.575c0,22.3 -5.75,36.55 -17.25,42.75c-4.7,2.5 -10.45,3.75 -17.25,3.75l-14.4,-9.3l0,33.45l-19.5,-0l0,-110.55l38.4,-0c11.6,-0 19.5,3.275 23.7,9.825c4.2,6.55 6.3,16.575 6.3,30.075Zm-19.5,3c0,-16.9 -5.4,-25.35 -16.2,-25.35l-13.2,-0l0,39.75l13.2,8.55c5.8,-0 9.95,-1.825 12.45,-5.475c2.5,-3.65 3.75,-9.475 3.75,-17.475Z" style="fill-rule:nonzero;"/>
        <path d="M937.55,162.225c0,10.1 -3.7,18.025 -11.1,23.775c-7.4,5.75 -16.85,8.625 -28.35,8.625c-9.1,-0 -17.9,-2.5 -26.4,-7.5c-4.2,-2.6 -7.65,-6.275 -10.35,-11.025c-2.7,-4.75 -4.05,-10.175 -4.05,-16.275l18.9,-0.9c0,5.4 2.3,9.6 6.9,12.6c4.6,3 9.7,4.5 15.3,4.5c12.5,-0 18.75,-4.4 18.75,-13.2c0,-7.2 -4.25,-11.45 -12.75,-12.75l-17.4,-1.8c-8.7,-1.3 -15.6,-4.4 -20.7,-9.3c-5.1,-4.9 -7.65,-11.95 -7.65,-21.15c0,-9.2 3.65,-16.8 10.95,-22.8c7.3,-6 16.525,-9 27.675,-9c11.15,-0 20.125,2.825 26.925,8.475c6.8,5.65 10.2,12.925 10.2,21.825l-18.6,0.9c-1.7,-8.7 -7.55,-13.05 -17.55,-13.05c-6.1,-0 -10.875,1.3 -14.325,3.9c-3.45,2.6 -5.175,5.675 -5.175,9.225c0,3.55 1.25,6.35 3.75,8.4c2.5,2.05 5.6,3.325 9.3,3.825l17.1,1.8c19.1,2.6 28.65,12.9 28.65,30.9Z" style="fill-rule:nonzero;"/>
        <path d="M1011.65,193.725l-13.05,-0l-6,-10.35l-20.85,11.25c-11.6,-0 -19.4,-4.2 -23.4,-12.6c-2,-4.1 -3.375,-8.525 -4.125,-13.275c-0.75,-4.75 -1.125,-9.7 -1.125,-14.85c0,-5.15 0.05,-8.95 0.15,-11.4c0.1,-2.45 0.35,-5.3 0.75,-8.55c0.4,-3.25 0.975,-5.975 1.725,-8.175c0.75,-2.2 1.825,-4.475 3.225,-6.825c1.4,-2.35 3.1,-4.225 5.1,-5.625c4.5,-3.1 10.35,-4.65 17.55,-4.65l20.55,-0l19.5,-1.2l0,86.25Zm-19.5,-27.3l0,-40.2l-14.85,-0c-5.5,-0 -9.325,2.1 -11.475,6.3c-2.15,4.2 -3.225,10.475 -3.225,18.825c0,8.35 1.025,14.225 3.075,17.625c2.05,3.4 5.925,5.1 11.625,5.1l14.85,-7.65Z" style="fill-rule:nonzero;"/>
        <path d="M1069.1,126.225l-15.9,-0l0,67.5l-19.5,-0l0,-67.5l-8.1,-0l0,-14.85l8.1,-0l0,-8.25c0,-6.1 1.95,-11.35 5.85,-15.75c3.9,-4.4 9.55,-6.6 16.95,-6.6l12.6,-0l0,16.5l-9.15,-0c-4.5,-0 -6.75,2.35 -6.75,7.05l0,7.05l15.9,-0l0,14.85Z" style="fill-rule:nonzero;"/>
        <path d="M1148.3,155.475l-49.95,-0c0,7.8 1.225,13.5 3.675,17.1c2.45,3.6 7.375,5.4 14.775,5.4c4.8,-0 8.35,-1.525 10.65,-4.575c2.3,-3.05 3.45,-5.975 3.45,-8.775l17.55,-0c0,10.7 -2.875,18.55 -8.625,23.55c-5.75,5 -13.35,7.5 -22.8,7.5c-9.45,-0 -16.775,-1.35 -21.975,-4.05c-10.7,-5.5 -16.05,-20.1 -16.05,-43.8c0,-14.1 3.05,-24.425 9.15,-30.975c6.1,-6.55 15.4,-9.825 27.9,-9.825c21.7,-0 32.55,12.05 32.55,36.15c0,2.6 -0.1,6.7 -0.3,12.3Zm-49.5,-13.35l32.1,-0c0,-6.6 -1.25,-11.4 -3.75,-14.4c-2.5,-3 -6.325,-4.5 -11.475,-4.5c-5.15,-0 -9.25,1.525 -12.3,4.575c-3.05,3.05 -4.575,7.825 -4.575,14.325Z" style="fill-rule:nonzero;"/>
        <g id="Logo">
            <path id="Box" d="M300,30l-0,240c-0,16.557 -13.443,30 -30,30l-240,-0c-16.557,-0 -30,-13.443 -30,-30l0,-240c0,-16.557 13.443,-30 30,-30l240,0c16.557,0 30,13.443 30,30Z" style="fill:url(#_Linear1);"/>
            <path id="Shadow" d="M300,160.815l-0,109.185c-0,16.557 -13.443,30 -30,30l-106.235,-0l-75.192,-75.192c0.401,0.364 0.851,0.669 1.342,0.9c4.708,2.252 9.417,4.299 14.125,5.937c2.867,1.023 5.835,-1.024 5.835,-4.095l-0,-84.856c-0,-3.173 3.378,-5.323 6.244,-3.89l32.039,15.968c1.228,0.615 2.661,0.615 3.889,0l31.527,-16.07c2.866,-1.433 6.244,0.614 6.346,3.89l0.103,84.753c-0,2.969 2.968,5.118 5.834,4.095c4.606,-1.74 9.213,-3.583 13.819,-5.835c1.74,-0.819 3.071,-2.559 3.378,-4.606l12.897,-77.998c0.102,-0.512 0.102,-1.228 -0,-1.842l-9.52,-62.235c-0.19,-1.268 -0.773,-2.418 -1.627,-3.305l85.196,85.196Zm-151.638,-23.853l-34.29,-16.48c-1.536,-0.717 -2.457,-2.252 -2.457,-3.89l0,-9.519c0,-3.173 3.378,-5.323 6.244,-3.89l30.401,15.149c1.228,0.614 2.661,0.614 3.89,0l29.786,-15.149c2.866,-1.433 6.244,0.614 6.347,3.89l-0,10.133c-0,1.638 -0.922,3.173 -2.457,3.89l-33.779,15.968c-1.126,0.512 -2.456,0.512 -3.685,-0.102Zm0,37.361l-12.078,-5.834c-2.866,-1.331 -6.244,0.716 -6.244,3.889l-0,62.337c-0,2.15 1.638,3.992 3.787,4.299c10.748,1.331 21.496,1.331 32.243,-0.102c2.15,-0.307 3.788,-2.149 3.788,-4.299l-0,-61.928c-0,-3.173 -3.276,-5.22 -6.142,-3.889l-11.669,5.527c-1.126,0.512 -2.456,0.512 -3.685,0Z" style="fill:#474f47;"/>
            <g id="Icon">
                <path d="M148.362,174.323l-12.078,-5.834c-2.866,-1.331 -6.244,0.716 -6.244,3.889l-0,62.337c-0,2.15 1.638,3.992 3.787,4.299c10.748,1.331 21.496,1.331 32.243,-0.102c2.15,-0.307 3.788,-2.149 3.788,-4.299l-0,-61.928c-0,-3.173 -3.276,-5.22 -6.142,-3.889l-11.669,5.527c-1.126,0.512 -2.456,0.512 -3.685,0Z" style="fill:#fff;"/>
                <path d="M225.951,141.159l-9.52,-62.235c-0.307,-2.047 -1.637,-3.788 -3.48,-4.606c-41.967,-19.039 -83.935,-19.142 -125.902,-0c-1.843,0.818 -3.173,2.559 -3.48,4.606l-9.52,62.235c-0.102,0.614 -0.102,1.33 0,1.944l12.59,77.998c0.307,2.048 1.536,3.788 3.276,4.607c4.708,2.252 9.417,4.299 14.125,5.937c2.867,1.023 5.835,-1.024 5.835,-4.095l-0,-84.856c-0,-3.173 3.378,-5.323 6.244,-3.89l32.039,15.968c1.228,0.615 2.661,0.615 3.889,0l31.527,-16.07c2.866,-1.433 6.244,0.614 6.346,3.89l0.103,84.753c-0,2.969 2.968,5.118 5.834,4.095c4.606,-1.74 9.213,-3.583 13.819,-5.835c1.74,-0.819 3.071,-2.559 3.378,-4.606l12.897,-77.998c0.102,-0.512 0.102,-1.228 -0,-1.842Zm-77.589,-4.197l-34.29,-16.48c-1.536,-0.717 -2.457,-2.252 -2.457,-3.89l0,-9.519c0,-3.173 3.378,-5.323 6.244,-3.89l30.401,15.149c1.228,0.614 2.661,0.614 3.89,0l29.786,-15.149c2.866,-1.433 6.244,0.614 6.347,3.89l-0,10.133c-0,1.638 -0.922,3.173 -2.457,3.89l-33.779,15.968c-1.126,0.512 -2.456,0.512 -3.685,-0.102Z" style="fill:#fff;"/>
            </g>
        </g>
    </g>
    <defs>
        <linearGradient id="_Linear1" x1="0" y1="0" x2="1" y2="0" gradientUnits="userSpaceOnUse" gradientTransform="matrix(1.83697e-14,300,-300,1.83697e-14,160.554,0)"><stop offset="0" style="stop-color:#bad1ba;stop-opacity:1"/><stop offset="1" style="stop-color:#657265;stop-opacity:1"/></linearGradient>
    </defs>
</svg>
