<?xml version="1.0" encoding="UTF-8" standalone="no"?>
<!DOCTYPE svg PUBLIC "-//W3C//DTD SVG 1.1//EN" "http://www.w3.org/Graphics/SVG/1.1/DTD/svg11.dtd">
<svg width="100%" height="100%" viewBox="0 0 250 422" version="1.1" xmlns="http://www.w3.org/2000/svg" xmlns:xlink="http://www.w3.org/1999/xlink" xml:space="preserve" xmlns:serif="http://www.serif.com/" style="fill-rule:evenodd;clip-rule:evenodd;stroke-linejoin:round;stroke-miterlimit:2;">
    <g transform="matrix(0.5,0,0,0.5,-125,-39.4938)">
        <g transform="matrix(1,0,0,1,-4400,0)">
            <g id="Name" transform="matrix(0.5,0,0,0.5,2450,540)">
                <g transform="matrix(12.3713,0,0,12.3713,-37379.1,-18497.6)">
                    <path d="M3423.65,1550.36L3415.66,1550.36C3415.66,1551.61 3415.85,1552.52 3416.24,1553.1C3416.64,1553.67 3417.42,1553.96 3418.61,1553.96C3419.38,1553.96 3419.94,1553.72 3420.31,1553.23C3420.68,1552.74 3420.86,1552.28 3420.86,1551.83L3423.67,1551.83C3423.67,1553.54 3423.21,1554.8 3422.29,1555.6C3421.37,1556.39 3420.16,1556.8 3418.64,1556.8C3417.13,1556.8 3415.96,1556.58 3415.13,1556.15C3413.42,1555.27 3412.56,1552.93 3412.56,1549.14C3412.56,1546.88 3413.05,1545.23 3414.02,1544.18C3415,1543.13 3416.49,1542.61 3418.49,1542.61C3421.96,1542.61 3423.7,1544.54 3423.7,1548.39C3423.7,1548.81 3423.68,1549.47 3423.65,1550.36ZM3415.73,1548.23L3420.86,1548.23C3420.86,1547.17 3420.66,1546.4 3420.26,1545.92C3419.86,1545.44 3419.25,1545.2 3418.43,1545.2C3417.6,1545.2 3416.95,1545.45 3416.46,1545.93C3415.97,1546.42 3415.73,1547.19 3415.73,1548.23Z" style="fill-rule:nonzero;"/>
                </g>
                <g transform="matrix(12.3713,0,0,12.3713,-37379.1,-18497.6)">
                    <path d="M3410.98,1545.68L3408.43,1545.68L3408.43,1556.48L3405.31,1556.48L3405.31,1545.68L3404.02,1545.68L3404.02,1543.31L3405.31,1543.31L3405.31,1541.99C3405.31,1541.01 3405.62,1540.17 3406.25,1539.47C3406.87,1538.76 3407.78,1538.41 3408.96,1538.41L3410.98,1538.41L3410.98,1541.05L3409.51,1541.05C3408.79,1541.05 3408.43,1541.43 3408.43,1542.18L3408.43,1543.31L3410.98,1543.31L3410.98,1545.68Z" style="fill-rule:nonzero;"/>
                </g>
                <g transform="matrix(12.3713,0,0,12.3713,-37379.1,-18497.6)">
                    <path d="M3401.78,1556.48L3399.7,1556.48L3398.74,1554.83L3395.4,1556.63C3393.54,1556.63 3392.3,1555.95 3391.66,1554.61C3391.34,1553.95 3391.12,1553.25 3391,1552.49C3390.88,1551.73 3390.82,1550.93 3390.82,1550.11C3390.82,1549.29 3390.82,1548.68 3390.84,1548.29C3390.86,1547.89 3390.9,1547.44 3390.96,1546.92C3391.02,1546.4 3391.12,1545.96 3391.24,1545.61C3391.36,1545.26 3391.53,1544.89 3391.75,1544.52C3391.98,1544.14 3392.25,1543.84 3392.57,1543.62C3393.29,1543.12 3394.22,1542.88 3395.38,1542.88L3398.66,1542.88L3401.78,1542.68L3401.78,1556.48ZM3398.66,1552.12L3398.66,1545.68L3396.29,1545.68C3395.41,1545.68 3394.8,1546.02 3394.45,1546.69C3394.11,1547.36 3393.94,1548.37 3393.94,1549.7C3393.94,1551.04 3394.1,1551.98 3394.43,1552.52C3394.76,1553.07 3395.38,1553.34 3396.29,1553.34L3398.66,1552.12Z" style="fill-rule:nonzero;"/>
                </g>
                <g transform="matrix(12.3713,0,0,12.3713,-37379.1,-18497.6)">
                    <path d="M3389.93,1551.44C3389.93,1553.06 3389.34,1554.33 3388.15,1555.25C3386.97,1556.17 3385.46,1556.63 3383.62,1556.63C3382.16,1556.63 3380.75,1556.23 3379.39,1555.43C3378.72,1555.01 3378.17,1554.42 3377.74,1553.66C3377.3,1552.9 3377.09,1552.04 3377.09,1551.06L3380.11,1550.91C3380.11,1551.78 3380.48,1552.45 3381.22,1552.93C3381.95,1553.41 3382.77,1553.65 3383.66,1553.65C3385.66,1553.65 3386.66,1552.95 3386.66,1551.54C3386.66,1550.39 3385.98,1549.71 3384.62,1549.5L3381.84,1549.21C3380.45,1549 3379.34,1548.51 3378.53,1547.72C3377.71,1546.94 3377.3,1545.81 3377.3,1544.34C3377.3,1542.87 3377.89,1541.65 3379.06,1540.69C3380.22,1539.73 3381.7,1539.25 3383.48,1539.25C3385.27,1539.25 3386.7,1539.7 3387.79,1540.61C3388.88,1541.51 3389.42,1542.67 3389.42,1544.1L3386.45,1544.24C3386.18,1542.85 3385.24,1542.15 3383.64,1542.15C3382.66,1542.15 3381.9,1542.36 3381.35,1542.78C3380.8,1543.19 3380.52,1543.69 3380.52,1544.26C3380.52,1544.82 3380.72,1545.27 3381.12,1545.6C3381.52,1545.93 3382.02,1546.13 3382.61,1546.21L3385.34,1546.5C3388.4,1546.91 3389.93,1548.56 3389.93,1551.44Z" style="fill-rule:nonzero;"/>
                </g>
                <g transform="matrix(12.3713,0,0,12.3713,-37379.1,-18497.6)">
                    <path d="M3457.92,1525.26C3457.92,1528.83 3457,1531.11 3455.16,1532.1C3454.41,1532.5 3453.49,1532.7 3452.4,1532.7L3450.1,1531.21L3450.1,1536.56L3446.98,1536.56L3446.98,1518.88L3453.12,1518.88C3454.98,1518.88 3456.24,1519.4 3456.91,1520.45C3457.58,1521.5 3457.92,1523.1 3457.92,1525.26ZM3454.8,1525.74C3454.8,1523.04 3453.94,1521.68 3452.21,1521.68L3450.1,1521.68L3450.1,1528.04L3452.21,1529.41C3453.14,1529.41 3453.8,1529.12 3454.2,1528.54C3454.6,1527.95 3454.8,1527.02 3454.8,1525.74Z" style="fill-rule:nonzero;"/>
                </g>
                <g transform="matrix(12.3713,0,0,12.3713,-37379.1,-18497.6)">
                    <path d="M3443.47,1532.48L3441.14,1532.48L3440.42,1530.85L3436.58,1532.63C3435.51,1532.63 3434.58,1532.23 3433.79,1531.44C3433,1530.65 3432.6,1529.49 3432.6,1527.97L3432.6,1518.78L3435.72,1518.78L3435.72,1527.3C3435.72,1528.82 3436.33,1529.58 3437.54,1529.58L3440.35,1528.07L3440.35,1518.78L3443.47,1518.78L3443.47,1532.48Z" style="fill-rule:nonzero;"/>
                </g>
                <g transform="matrix(12.3713,0,0,12.3713,-37379.1,-18497.6)">
                    <path d="M3431.59,1532.48L3427.85,1532.48L3424.25,1527.63L3422.88,1529.58L3422.88,1532.48L3419.76,1532.48L3419.76,1514.43L3422.88,1514.43L3422.88,1525.84L3427.25,1519.33L3430.78,1519.33L3426.29,1525.48L3431.59,1532.48Z" style="fill-rule:nonzero;"/>
                </g>
                <g transform="matrix(12.3713,0,0,12.3713,-37379.1,-18497.6)">
                    <path d="M3417.72,1518.83L3416.86,1521.9C3416.62,1521.8 3416.34,1521.76 3416.04,1521.76C3415.24,1521.76 3414.26,1522.1 3413.09,1522.79L3413.09,1532.48L3409.97,1532.48L3409.97,1518.78L3412.3,1518.78L3413.02,1519.98L3416.33,1518.61C3416.49,1518.6 3416.7,1518.59 3416.98,1518.59C3417.25,1518.59 3417.5,1518.67 3417.72,1518.83Z" style="fill-rule:nonzero;"/>
                </g>
                <g transform="matrix(12.3713,0,0,12.3713,-37379.1,-18497.6)">
                    <path d="M3407.06,1532.48L3404.98,1532.48L3404.02,1530.83L3400.68,1532.63C3398.82,1532.63 3397.58,1531.95 3396.94,1530.61C3396.62,1529.95 3396.4,1529.25 3396.28,1528.49C3396.16,1527.73 3396.1,1526.93 3396.1,1526.11C3396.1,1525.29 3396.1,1524.68 3396.12,1524.29C3396.14,1523.89 3396.18,1523.44 3396.24,1522.92C3396.3,1522.4 3396.4,1521.96 3396.52,1521.61C3396.64,1521.26 3396.81,1520.89 3397.03,1520.52C3397.26,1520.14 3397.53,1519.84 3397.85,1519.62C3398.57,1519.12 3399.5,1518.88 3400.66,1518.88L3403.94,1518.88L3407.06,1518.68L3407.06,1532.48ZM3403.94,1528.12L3403.94,1521.68L3401.57,1521.68C3400.69,1521.68 3400.08,1522.02 3399.73,1522.69C3399.39,1523.36 3399.22,1524.37 3399.22,1525.7C3399.22,1527.04 3399.38,1527.98 3399.71,1528.52C3400.04,1529.07 3400.66,1529.34 3401.57,1529.34L3403.94,1528.12Z" style="fill-rule:nonzero;"/>
                </g>
                <g transform="matrix(12.3713,0,0,12.3713,-37379.1,-18497.6)">
                    <path d="M3391.03,1522.28L3387.96,1528.76C3387.51,1529.63 3386.96,1530.06 3386.29,1530.06C3385.63,1530.06 3385.07,1529.6 3384.62,1528.69L3381.5,1522.28L3381.5,1532.48L3378.17,1532.48L3378.17,1515.39L3381.46,1515.39L3386.28,1525.26L3391.08,1515.39L3394.37,1515.39L3394.37,1532.48L3391.03,1532.48L3391.03,1522.28Z" style="fill-rule:nonzero;"/>
                </g>
            </g>
        </g>
        <g transform="matrix(1,0,0,1,-4400,0)">
            <g id="Icon" transform="matrix(0.5,0,0,0.5,2450,78.9875)">
                <g id="Box" transform="matrix(1,0,0,1,3300,0)">
                    <path d="M2100,100L2100,900C2100,955.192 2055.19,1000 2000,1000L1200,1000C1144.81,1000 1100,955.192 1100,900L1100,100C1100,44.808 1144.81,0 1200,0L2000,0C2055.19,0 2100,44.808 2100,100Z" style="fill:url(#_Linear1);"/>
                </g>
                <g id="Shadow" transform="matrix(1,0,0,1,4400,-1100)">
                    <path d="M1000,1636.05L1000,2000C1000,2055.19 955.192,2100 900,2100L545.883,2100L295.245,1849.36C296.579,1850.57 298.08,1851.59 299.716,1852.36C315.411,1859.87 331.106,1866.69 346.802,1872.15C356.355,1875.56 366.25,1868.74 366.25,1858.5L366.25,1575.65C366.25,1565.07 377.51,1557.9 387.063,1562.68L493.858,1615.91C497.953,1617.95 502.73,1617.95 506.824,1615.91L611.913,1562.34C621.467,1557.56 632.726,1564.39 633.068,1575.31L633.409,1857.82C633.409,1867.71 643.304,1874.88 652.857,1871.47C668.211,1865.67 683.565,1859.52 698.919,1852.02C704.719,1849.29 709.155,1843.49 710.179,1836.66L753.17,1576.67C753.511,1574.96 753.511,1572.58 753.17,1570.53L721.438,1363.08C720.804,1358.85 718.861,1355.02 716.015,1352.06L1000,1636.05ZM494.541,1556.54L380.239,1501.61C375.121,1499.22 372.05,1494.1 372.05,1488.64L372.05,1456.91C372.05,1446.33 383.31,1439.17 392.863,1443.94L494.2,1494.44C498.294,1496.49 503.071,1496.49 507.165,1494.44L606.454,1443.94C616.008,1439.17 627.267,1445.99 627.608,1456.91L627.608,1490.69C627.608,1496.15 624.538,1501.27 619.42,1503.65L506.824,1556.88C503.071,1558.59 498.635,1558.59 494.541,1556.54ZM494.541,1681.08L454.279,1661.63C444.726,1657.19 433.466,1664.02 433.466,1674.59L433.466,1882.38C433.466,1889.55 438.925,1895.69 446.091,1896.72C481.916,1901.15 517.742,1901.15 553.568,1896.37C560.733,1895.35 566.193,1889.21 566.193,1882.04L566.193,1675.62C566.193,1665.04 555.274,1658.22 545.721,1662.65L506.824,1681.08C503.071,1682.78 498.635,1682.78 494.541,1681.08Z" style="fill:rgb(71,79,71);"/>
                </g>
                <g id="Icon1" serif:id="Icon" transform="matrix(1.706,0,0,1.706,4281.28,-532.917)">
                    <g transform="matrix(2,0,0,2,-214.125,-429.612)">
                        <path d="M286.8,541.3L275,535.6C272.2,534.3 268.9,536.3 268.9,539.4L268.9,600.3C268.9,602.4 270.5,604.2 272.6,604.5C283.1,605.8 293.6,605.8 304.1,604.4C306.2,604.1 307.8,602.3 307.8,600.2L307.8,539.7C307.8,536.6 304.6,534.6 301.8,535.9L290.4,541.3C289.3,541.8 288,541.8 286.8,541.3Z" style="fill:white;"/>
                    </g>
                    <g transform="matrix(2,0,0,2,-214.125,-429.612)">
                        <path d="M362.6,508.9L353.3,448.1C353,446.1 351.7,444.4 349.9,443.6C308.9,425 267.9,424.9 226.9,443.6C225.1,444.4 223.8,446.1 223.5,448.1L214.2,508.9C214.1,509.5 214.1,510.2 214.2,510.8L226.5,587C226.8,589 228,590.7 229.7,591.5C234.3,593.7 238.9,595.7 243.5,597.3C246.3,598.3 249.2,596.3 249.2,593.3L249.2,510.4C249.2,507.3 252.5,505.2 255.3,506.6L286.6,522.2C287.8,522.8 289.2,522.8 290.4,522.2L321.2,506.5C324,505.1 327.3,507.1 327.4,510.3L327.5,593.1C327.5,596 330.4,598.1 333.2,597.1C337.7,595.4 342.2,593.6 346.7,591.4C348.4,590.6 349.7,588.9 350,586.9L362.6,510.7C362.7,510.2 362.7,509.5 362.6,508.9ZM286.8,504.8L253.3,488.7C251.8,488 250.9,486.5 250.9,484.9L250.9,475.6C250.9,472.5 254.2,470.4 257,471.8L286.7,486.6C287.9,487.2 289.3,487.2 290.5,486.6L319.6,471.8C322.4,470.4 325.7,472.4 325.8,475.6L325.8,485.5C325.8,487.1 324.9,488.6 323.4,489.3L290.4,504.9C289.3,505.4 288,505.4 286.8,504.8Z" style="fill:white;"/>
                    </g>
                </g>
            </g>
        </g>
    </g>
    <defs>
        <linearGradient id="_Linear1" x1="0" y1="0" x2="1" y2="0" gradientUnits="userSpaceOnUse" gradientTransform="matrix(6.12323e-14,1000,-1000,6.12323e-14,1635.18,0)"><stop offset="0" style="stop-color:rgb(186,209,186);stop-opacity:1"/><stop offset="1" style="stop-color:rgb(101,114,101);stop-opacity:1"/></linearGradient>
    </defs>
</svg>
