<?xml version="1.0" encoding="UTF-8" standalone="no"?>
<!DOCTYPE svg PUBLIC "-//W3C//DTD SVG 1.1//EN" "http://www.w3.org/Graphics/SVG/1.1/DTD/svg11.dtd">
<svg width="100%" height="100%" viewBox="0 0 460 170" version="1.1" xmlns="http://www.w3.org/2000/svg" xmlns:xlink="http://www.w3.org/1999/xlink" xml:space="preserve" xmlns:serif="http://www.serif.com/" style="fill-rule:evenodd;clip-rule:evenodd;stroke-linejoin:round;stroke-miterlimit:2;">
    <g id="Name">
        <path d="M235.169,78.731l-6.01,12.679c-0.877,1.69 -1.965,2.535 -3.264,2.535c-1.299,0 -2.387,-0.892 -3.264,-2.676l-6.104,-12.538l0,19.957l-6.527,0l0,-33.433l6.433,-0l9.439,19.299l9.391,-19.299l6.433,-0l0,33.433l-6.527,0l0,-19.957Z" style="fill-rule:nonzero;"/>
        <path d="M266.536,98.688l-4.085,0l-1.878,-3.24l-6.527,3.522c-3.632,-0 -6.073,-1.315 -7.325,-3.945c-0.627,-1.283 -1.057,-2.668 -1.292,-4.155c-0.235,-1.487 -0.352,-3.037 -0.352,-4.649c0,-1.612 0.016,-2.802 0.047,-3.569c0.031,-0.767 0.11,-1.659 0.235,-2.676c0.125,-1.018 0.305,-1.871 0.54,-2.56c0.235,-0.688 0.571,-1.4 1.009,-2.136c0.439,-0.736 0.971,-1.323 1.597,-1.761c1.409,-0.97 3.24,-1.456 5.494,-1.456l6.433,0l6.104,-0.375l0,27Zm-6.104,-8.546l0,-12.585l-4.649,0c-1.722,0 -2.919,0.658 -3.592,1.972c-0.673,1.315 -1.01,3.28 -1.01,5.894c0,2.614 0.321,4.453 0.963,5.517c0.642,1.064 1.855,1.597 3.639,1.597l4.649,-2.395Z" style="fill-rule:nonzero;"/>
        <path d="M287.385,71.969l-1.69,6.011c-0.47,-0.188 -1.002,-0.282 -1.597,-0.282c-1.565,0 -3.49,0.673 -5.775,2.019l-0,18.971l-6.105,0l0,-26.813l4.555,0l1.409,2.348l6.48,-2.676c0.313,-0.032 0.736,-0.047 1.268,-0.047c0.532,-0 1.017,0.156 1.455,0.469Z" style="fill-rule:nonzero;"/>
        <path d="M314.527,98.688l-7.326,0l-7.043,-9.485l-2.677,3.803l0,5.682l-6.104,0l-0,-35.312l6.104,0l0,22.305l8.546,-12.726l6.903,0l-8.781,12.022l10.378,13.711Z" style="fill-rule:nonzero;"/>
        <path d="M337.77,98.688l-4.554,0l-1.409,-3.193l-7.513,3.475c-2.098,-0 -3.921,-0.775 -5.471,-2.325c-1.549,-1.549 -2.324,-3.811 -2.324,-6.785l-0,-17.985l6.104,0l0,16.67c0,2.974 1.19,4.461 3.569,4.461l5.494,-2.958l0,-18.173l6.104,0l0,26.813Z" style="fill-rule:nonzero;"/>
        <path d="M366.039,84.554c-0,6.981 -1.8,11.442 -5.4,13.383c-1.472,0.782 -3.272,1.174 -5.4,1.174l-4.508,-2.912l-0,10.472l-6.105,-0l0,-34.608l12.021,0c3.632,0 6.105,1.026 7.419,3.076c1.315,2.05 1.973,5.189 1.973,9.415Zm-6.105,0.939c0,-5.29 -1.69,-7.936 -5.071,-7.936l-4.132,0l-0,12.444l4.132,2.676c1.816,0 3.115,-0.571 3.897,-1.713c0.783,-1.143 1.174,-2.967 1.174,-5.471Z" style="fill-rule:nonzero;"/>
        <path d="M393.931,88.827c0,3.162 -1.158,5.643 -3.475,7.443c-2.316,1.8 -5.274,2.7 -8.874,2.7c-2.849,-0 -5.604,-0.783 -8.265,-2.348c-1.315,-0.814 -2.395,-1.964 -3.24,-3.451c-0.845,-1.487 -1.268,-3.186 -1.268,-5.095l5.917,-0.282c-0,1.69 0.72,3.005 2.16,3.944c1.44,0.939 3.036,1.409 4.789,1.409c3.914,0 5.87,-1.377 5.87,-4.132c0,-2.254 -1.33,-3.585 -3.991,-3.992l-5.447,-0.563c-2.724,-0.407 -4.884,-1.377 -6.48,-2.911c-1.597,-1.534 -2.395,-3.741 -2.395,-6.621c-0,-2.88 1.142,-5.26 3.428,-7.138c2.285,-1.878 5.173,-2.817 8.663,-2.817c3.491,-0 6.3,0.884 8.429,2.653c2.129,1.769 3.193,4.046 3.193,6.832l-5.823,0.282c-0.532,-2.724 -2.363,-4.085 -5.494,-4.085c-1.909,-0 -3.404,0.407 -4.484,1.22c-1.08,0.814 -1.62,1.777 -1.62,2.888c0,1.112 0.391,1.988 1.174,2.63c0.783,0.642 1.753,1.041 2.911,1.197l5.353,0.564c5.98,0.814 8.969,4.038 8.969,9.673Z" style="fill-rule:nonzero;"/>
        <path d="M417.128,98.688l-4.085,0l-1.878,-3.24l-6.528,3.522c-3.631,-0 -6.073,-1.315 -7.325,-3.945c-0.626,-1.283 -1.056,-2.668 -1.291,-4.155c-0.235,-1.487 -0.352,-3.037 -0.352,-4.649c-0,-1.612 0.015,-2.802 0.047,-3.569c0.031,-0.767 0.109,-1.659 0.234,-2.676c0.126,-1.018 0.306,-1.871 0.54,-2.56c0.235,-0.688 0.572,-1.4 1.01,-2.136c0.438,-0.736 0.97,-1.323 1.597,-1.761c1.408,-0.97 3.24,-1.456 5.494,-1.456l6.433,0l6.104,-0.375l0,27Zm-6.104,-8.546l-0,-12.585l-4.649,0c-1.722,0 -2.919,0.658 -3.592,1.972c-0.673,1.315 -1.01,3.28 -1.01,5.894c0,2.614 0.321,4.453 0.963,5.517c0.641,1.064 1.855,1.597 3.639,1.597l4.649,-2.395Z" style="fill-rule:nonzero;"/>
        <path d="M435.113,77.557l-4.978,0l0,21.131l-6.104,0l-0,-21.131l-2.536,0l0,-4.648l2.536,-0l-0,-2.583c-0,-1.91 0.61,-3.553 1.831,-4.931c1.221,-1.377 2.99,-2.066 5.306,-2.066l3.945,0l-0,5.166l-2.865,-0c-1.408,-0 -2.113,0.735 -2.113,2.207l0,2.207l4.978,-0l-0,4.648Z" style="fill-rule:nonzero;"/>
        <path d="M459.906,86.714l-15.637,-0c0,2.442 0.384,4.226 1.151,5.353c0.767,1.127 2.309,1.691 4.625,1.691c1.503,-0 2.614,-0.478 3.334,-1.433c0.72,-0.954 1.08,-1.87 1.08,-2.747l5.494,0c0,3.35 -0.9,5.807 -2.7,7.373c-1.8,1.565 -4.179,2.347 -7.137,2.347c-2.959,0 -5.252,-0.422 -6.88,-1.267c-3.349,-1.722 -5.024,-6.293 -5.024,-13.712c-0,-4.414 0.955,-7.646 2.864,-9.697c1.91,-2.05 4.821,-3.075 8.734,-3.075c6.793,-0 10.19,3.772 10.19,11.316c0,0.814 -0.031,2.098 -0.094,3.851Zm-15.496,-4.179l10.049,-0c0,-2.066 -0.391,-3.569 -1.174,-4.508c-0.782,-0.939 -1.98,-1.409 -3.592,-1.409c-1.612,0 -2.896,0.478 -3.851,1.432c-0.954,0.955 -1.432,2.45 -1.432,4.485Z" style="fill-rule:nonzero;"/>
    </g>
    <g id="Icon">
        <path id="Box" d="M170,17l0,136c0,9.383 -7.617,17 -17,17l-136,0c-9.383,0 -17,-7.617 -17,-17l0,-136c0,-9.383 7.617,-17 17,-17l136,0c9.383,0 17,7.617 17,17Z" style="fill:url(#_Linear1);"/>
        <path id="Shadow" d="M170,91.128l0,61.872c0,9.383 -7.617,17 -17,17l-60.2,0l-42.608,-42.609c0.226,0.207 0.482,0.379 0.76,0.51c2.668,1.276 5.336,2.436 8.004,3.364c1.624,0.58 3.306,-0.58 3.306,-2.32l0,-48.085c0,-1.798 1.915,-3.016 3.539,-2.204l18.155,9.048c0.696,0.348 1.508,0.348 2.204,0l17.865,-9.106c1.624,-0.812 3.539,0.348 3.597,2.204l0.058,48.027c-0,1.682 1.682,2.9 3.306,2.32c2.61,-0.986 5.22,-2.03 7.83,-3.306c0.986,-0.464 1.74,-1.45 1.914,-2.61l7.309,-44.199c0.058,-0.29 0.058,-0.696 -0,-1.044l-5.394,-35.267c-0.108,-0.718 -0.439,-1.37 -0.922,-1.872l48.277,48.277Zm-85.928,-13.516l-19.431,-9.339c-0.87,-0.406 -1.392,-1.276 -1.392,-2.204l-0,-5.394c-0,-1.799 1.914,-3.017 3.538,-2.205l17.227,8.585c0.696,0.348 1.508,0.348 2.204,-0l16.879,-8.585c1.624,-0.812 3.538,0.348 3.596,2.205l0,5.742c0,0.928 -0.522,1.798 -1.392,2.204l-19.141,9.049c-0.638,0.29 -1.392,0.29 -2.088,-0.058Zm-0,21.171l-6.845,-3.306c-1.624,-0.754 -3.538,0.406 -3.538,2.204l0,35.324c0,1.218 0.928,2.262 2.146,2.437c6.091,0.754 12.181,0.754 18.272,-0.058c1.218,-0.175 2.146,-1.219 2.146,-2.437l-0,-35.092c-0,-1.798 -1.856,-2.958 -3.48,-2.204l-6.613,3.132c-0.638,0.29 -1.392,0.29 -2.088,0Z" style="fill:#474f47;"/>
        <g id="Icon1" serif:id="Icon">
            <path d="M84.072,98.783l-6.845,-3.306c-1.624,-0.754 -3.538,0.406 -3.538,2.204l0,35.324c0,1.218 0.928,2.262 2.146,2.437c6.091,0.754 12.181,0.754 18.272,-0.058c1.218,-0.175 2.146,-1.219 2.146,-2.437l-0,-35.092c-0,-1.798 -1.856,-2.958 -3.48,-2.204l-6.613,3.132c-0.638,0.29 -1.392,0.29 -2.088,0Z" style="fill:#fff;"/>
            <path d="M128.039,79.99l-5.394,-35.267c-0.175,-1.16 -0.929,-2.146 -1.973,-2.61c-23.781,-10.788 -47.563,-10.846 -71.344,0c-1.044,0.464 -1.798,1.45 -1.973,2.61l-5.394,35.267c-0.058,0.348 -0.058,0.754 0,1.102l7.135,44.199c0.174,1.16 0.87,2.146 1.856,2.61c2.668,1.276 5.336,2.436 8.004,3.364c1.624,0.58 3.306,-0.58 3.306,-2.32l0,-48.085c0,-1.798 1.915,-3.016 3.539,-2.204l18.155,9.048c0.696,0.348 1.508,0.348 2.204,0l17.865,-9.106c1.624,-0.812 3.539,0.348 3.597,2.204l0.058,48.027c-0,1.682 1.682,2.9 3.306,2.32c2.61,-0.986 5.22,-2.03 7.83,-3.306c0.986,-0.464 1.74,-1.45 1.914,-2.61l7.309,-44.199c0.058,-0.29 0.058,-0.696 -0,-1.044Zm-43.967,-2.378l-19.431,-9.339c-0.87,-0.406 -1.392,-1.276 -1.392,-2.204l-0,-5.394c-0,-1.799 1.914,-3.017 3.538,-2.205l17.227,8.585c0.696,0.348 1.508,0.348 2.204,-0l16.879,-8.585c1.624,-0.812 3.538,0.348 3.596,2.205l0,5.742c0,0.928 -0.522,1.798 -1.392,2.204l-19.141,9.049c-0.638,0.29 -1.392,0.29 -2.088,-0.058Z" style="fill:#fff;"/>
        </g>
    </g>
    <defs>
        <linearGradient id="_Linear1" x1="0" y1="0" x2="1" y2="0" gradientUnits="userSpaceOnUse" gradientTransform="matrix(1.04095e-14,170,-170,1.04095e-14,90.9806,0)"><stop offset="0" style="stop-color:#bad1ba;stop-opacity:1"/><stop offset="1" style="stop-color:#657265;stop-opacity:1"/></linearGradient>
    </defs>
</svg>
