<?xml version="1.0" encoding="UTF-8" standalone="no"?>
<!DOCTYPE svg PUBLIC "-//W3C//DTD SVG 1.1//EN" "http://www.w3.org/Graphics/SVG/1.1/DTD/svg11.dtd">
<svg width="100%" height="100%" viewBox="0 0 500 500" version="1.1" xmlns="http://www.w3.org/2000/svg" xmlns:xlink="http://www.w3.org/1999/xlink" xml:space="preserve" xmlns:serif="http://www.serif.com/" style="fill-rule:evenodd;clip-rule:evenodd;stroke-linejoin:round;stroke-miterlimit:2;">
    <rect id="Icon" x="0" y="0" width="500" height="500" style="fill:none;"/>
    <clipPath id="_clip1">
        <rect x="0" y="0" width="500" height="500"/>
    </clipPath>
    <g clip-path="url(#_clip1)">
        <g>
            <path d="M245.451,317.564l-33.552,-16.207c-7.961,-3.696 -17.344,1.99 -17.344,10.805l0,173.158c0,5.971 4.549,11.089 10.52,11.942c29.855,3.697 59.71,3.697 89.565,-0.284c5.971,-0.853 10.521,-5.971 10.521,-11.942l-0,-172.021c-0,-8.815 -9.099,-14.501 -17.06,-10.805l-32.414,15.354c-3.128,1.422 -6.824,1.422 -10.236,0Z" style="fill:#9fb19e;"/>
            <path d="M460.975,225.44l-26.443,-172.874c-0.853,-5.687 -4.549,-10.52 -9.667,-12.795c-116.577,-52.886 -233.153,-53.17 -349.73,0c-5.118,2.275 -8.814,7.108 -9.667,12.795l-26.443,172.874c-0.284,1.706 -0.284,3.697 0,5.403l34.973,216.661c0.853,5.687 4.265,10.52 9.099,12.795c13.079,6.255 26.158,11.942 39.238,16.491c7.961,2.844 16.207,-2.843 16.207,-11.373l-0,-235.712c-0,-8.814 9.383,-14.785 17.344,-10.804l88.996,44.356c3.412,1.706 7.393,1.706 10.805,-0l87.574,-44.641c7.961,-3.98 17.344,1.706 17.629,10.805l0.284,235.427c0,8.246 8.246,14.217 16.207,11.374c12.795,-4.834 25.59,-9.952 38.385,-16.207c4.834,-2.275 8.53,-7.109 9.383,-12.795l35.826,-216.662c0.284,-1.421 0.284,-3.412 -0,-5.118Zm-215.524,-11.657l-95.252,-45.778c-4.265,-1.99 -6.824,-6.255 -6.824,-10.805l0,-26.442c0,-8.815 9.383,-14.786 17.345,-10.805l84.446,42.081c3.412,1.706 7.393,1.706 10.805,0l82.741,-42.081c7.961,-3.981 17.344,1.706 17.628,10.805l0,28.148c0,4.55 -2.559,8.815 -6.824,10.805l-93.829,44.356c-3.128,1.422 -6.824,1.422 -10.236,-0.284Z" style="fill:#9fb19e;"/>
        </g>
    </g>
</svg>
