<?xml version="1.0" encoding="UTF-8" standalone="no"?>
<!DOCTYPE svg PUBLIC "-//W3C//DTD SVG 1.1//EN" "http://www.w3.org/Graphics/SVG/1.1/DTD/svg11.dtd">
<svg width="100%" height="100%" viewBox="0 0 500 500" version="1.1" xmlns="http://www.w3.org/2000/svg" xmlns:xlink="http://www.w3.org/1999/xlink" xml:space="preserve" xmlns:serif="http://www.serif.com/" style="fill-rule:evenodd;clip-rule:evenodd;stroke-linejoin:round;stroke-miterlimit:2;">
    <rect id="Logo" x="0" y="0" width="500" height="500" style="fill:none;"/>
    <g>
        <path id="Box" d="M500,50l0,400c0,27.596 -22.404,50 -50,50l-400,0c-27.596,0 -50,-22.404 -50,-50l0,-400c0,-27.596 22.404,-50 50,-50l400,0c27.596,0 50,22.404 50,50Z" style="fill:url(#_Linear1);"/>
        <path id="Shadow" d="M500,268.025l0,181.975c0,27.596 -22.404,50 -50,50l-177.058,0l-125.32,-125.319c0.668,0.606 1.418,1.113 2.236,1.498c7.848,3.754 15.695,7.166 23.543,9.895c4.777,1.706 9.724,-1.706 9.724,-6.824l-0,-141.427c-0,-5.288 5.63,-8.871 10.407,-6.483l53.397,26.614c2.047,1.024 4.436,1.024 6.483,-0l52.545,-26.784c4.776,-2.389 10.406,1.023 10.577,6.483l0.17,141.256c0,4.947 4.948,8.53 9.725,6.824c7.677,-2.9 15.354,-5.971 23.031,-9.724c2.9,-1.365 5.118,-4.265 5.629,-7.677l21.496,-129.997c0.17,-0.853 0.17,-2.047 -0,-3.071l-15.866,-103.724c-0.317,-2.114 -1.288,-4.031 -2.712,-5.508l141.993,141.993Zm-252.73,-39.755l-57.15,-27.467c-2.559,-1.194 -4.095,-3.753 -4.095,-6.483l0,-15.865c0,-5.289 5.63,-8.872 10.407,-6.483l50.668,25.248c2.047,1.024 4.435,1.024 6.483,0l49.644,-25.248c4.777,-2.389 10.407,1.023 10.577,6.483l0,16.889c0,2.729 -1.535,5.288 -4.094,6.483l-56.298,26.613c-1.877,0.853 -4.094,0.853 -6.142,-0.17Zm0,62.268l-20.13,-9.724c-4.777,-2.218 -10.407,1.194 -10.407,6.483l0,103.895c0,3.583 2.73,6.654 6.312,7.165c17.913,2.218 35.826,2.218 53.739,-0.17c3.583,-0.512 6.312,-3.583 6.312,-7.165l0,-103.213c0,-5.289 -5.459,-8.701 -10.236,-6.483l-19.448,9.212c-1.877,0.853 -4.094,0.853 -6.142,0Z" style="fill:#474f47;"/>
        <g id="Icon">
            <path d="M247.27,290.538l-20.13,-9.724c-4.777,-2.218 -10.407,1.194 -10.407,6.483l0,103.895c0,3.583 2.73,6.654 6.312,7.165c17.913,2.218 35.826,2.218 53.739,-0.17c3.583,-0.512 6.312,-3.583 6.312,-7.165l0,-103.213c0,-5.289 -5.459,-8.701 -10.236,-6.483l-19.448,9.212c-1.877,0.853 -4.094,0.853 -6.142,0Z" style="fill:#fff;"/>
            <path d="M376.585,235.264l-15.866,-103.724c-0.512,-3.412 -2.729,-6.313 -5.8,-7.677c-69.946,-31.732 -139.892,-31.902 -209.838,-0c-3.071,1.364 -5.288,4.265 -5.8,7.677l-15.866,103.724c-0.17,1.024 -0.17,2.218 0,3.242l20.984,129.996c0.512,3.412 2.559,6.313 5.459,7.677c7.848,3.754 15.695,7.166 23.543,9.895c4.777,1.706 9.724,-1.706 9.724,-6.824l-0,-141.427c-0,-5.288 5.63,-8.871 10.407,-6.483l53.397,26.614c2.047,1.024 4.436,1.024 6.483,-0l52.545,-26.784c4.776,-2.389 10.406,1.023 10.577,6.483l0.17,141.256c0,4.947 4.948,8.53 9.725,6.824c7.677,-2.9 15.354,-5.971 23.031,-9.724c2.9,-1.365 5.118,-4.265 5.629,-7.677l21.496,-129.997c0.17,-0.853 0.17,-2.047 -0,-3.071Zm-129.315,-6.994l-57.15,-27.467c-2.559,-1.194 -4.095,-3.753 -4.095,-6.483l0,-15.865c0,-5.289 5.63,-8.872 10.407,-6.483l50.668,25.248c2.047,1.024 4.435,1.024 6.483,0l49.644,-25.248c4.777,-2.389 10.407,1.023 10.577,6.483l0,16.889c0,2.729 -1.535,5.288 -4.094,6.483l-56.298,26.613c-1.877,0.853 -4.094,0.853 -6.142,-0.17Z" style="fill:#fff;"/>
        </g>
    </g>
    <defs>
        <linearGradient id="_Linear1" x1="0" y1="0" x2="1" y2="0" gradientUnits="userSpaceOnUse" gradientTransform="matrix(3.06162e-14,500,-500,3.06162e-14,267.59,0)"><stop offset="0" style="stop-color:#bad1ba;stop-opacity:1"/><stop offset="1" style="stop-color:#657265;stop-opacity:1"/></linearGradient>
    </defs>
</svg>
